<svg width="26" height="21" viewBox="0 0 26 21" fill="none" xmlns="http://www.w3.org/2000/svg">
<path d="M15.4408 15.613C15.4408 17.042 15.9635 18.2471 17.0087 19.2283C18.0326 20.2094 19.2805 20.7 20.7524 20.7C22.267 20.7 23.5255 20.2094 24.5281 19.2283C25.5094 18.2471 26 17.042 26 15.613C26 14.9304 25.904 14.2053 25.712 13.4374C25.52 12.6696 25.1361 11.6777 24.5601 10.462L19.6005 0H14.8009L17.4567 11.5818C16.8594 12.0083 16.3794 12.5736 16.0168 13.2774C15.6328 13.96 15.4408 14.7385 15.4408 15.613ZM1.20195 15.613C1.20195 17.042 1.72457 18.2471 2.76982 19.2283C3.81508 20.2094 5.06298 20.7 6.51353 20.7C7.98541 20.7 9.23332 20.2094 10.2572 19.2283C11.2598 18.2471 11.7611 17.042 11.7611 15.613C11.7611 14.9304 11.6651 14.2053 11.4731 13.4374C11.2812 12.6696 10.8865 11.6777 10.2892 10.462L5.29763 0H0.530001L3.21779 11.5818C2.59917 12.0083 2.10854 12.5736 1.74591 13.2774C1.38327 13.96 1.20195 14.7385 1.20195 15.613Z" fill="#ABB2BF"/>
</svg>
